<svg width="33" height="33" viewBox="0 0 33 33" fill="none" xmlns="http://www.w3.org/2000/svg">
<path fill-rule="evenodd" clip-rule="evenodd" d="M21.9998 4.65479H11.3332C7.65128 4.65479 4.6665 7.63956 4.6665 11.3215V21.9881C4.6665 25.67 7.65128 28.6548 11.3332 28.6548H21.9998C25.6817 28.6548 28.6665 25.67 28.6665 21.9881V11.3215C28.6665 7.63956 25.6817 4.65479 21.9998 4.65479ZM26.3332 21.9881C26.3258 24.3783 24.39 26.3141 21.9998 26.3215H11.3332C8.94297 26.3141 7.00716 24.3783 6.99984 21.9881V11.3215C7.00716 8.93125 8.94297 6.99544 11.3332 6.98812H21.9998C24.39 6.99544 26.3258 8.93125 26.3332 11.3215V21.9881ZM22.9998 11.6548C23.7362 11.6548 24.3332 11.0578 24.3332 10.3215C24.3332 9.58508 23.7362 8.98812 22.9998 8.98812C22.2634 8.98812 21.6665 9.58508 21.6665 10.3215C21.6665 11.0578 22.2634 11.6548 22.9998 11.6548ZM16.6665 10.6548C13.3528 10.6548 10.6665 13.3411 10.6665 16.6548C10.6665 19.9685 13.3528 22.6548 16.6665 22.6548C19.9802 22.6548 22.6665 19.9685 22.6665 16.6548C22.6701 15.0624 22.039 13.5342 20.913 12.4082C19.787 11.2822 18.2589 10.6512 16.6665 10.6548ZM12.9998 16.6548C12.9998 18.6799 14.6414 20.3215 16.6665 20.3215C18.6916 20.3215 20.3332 18.6799 20.3332 16.6548C20.3332 14.6297 18.6916 12.9881 16.6665 12.9881C14.6414 12.9881 12.9998 14.6297 12.9998 16.6548Z" fill="black"/>
</svg>
