<svg width="25" height="25" viewBox="0 0 25 25" fill="none" xmlns="http://www.w3.org/2000/svg">
<path fill-rule="evenodd" clip-rule="evenodd" d="M3.33317 0.654785H21.9998C23.4726 0.654785 24.6665 1.84869 24.6665 3.32145V21.9881C24.6665 23.4609 23.4726 24.6548 21.9998 24.6548H3.33317C1.86041 24.6548 0.666504 23.4609 0.666504 21.9881V3.32145C0.666504 1.84869 1.86041 0.654785 3.33317 0.654785ZM7.33317 20.6548C7.70136 20.6548 7.99984 20.3563 7.99984 19.9881V10.6548C7.99984 10.2867 7.70136 9.98812 7.33317 9.98812H5.33317C4.96498 9.98812 4.6665 10.2867 4.6665 10.6548V19.9881C4.6665 20.3563 4.96498 20.6548 5.33317 20.6548H7.33317ZM6.33317 8.65479C5.2286 8.65479 4.33317 7.75936 4.33317 6.65479C4.33317 5.55021 5.2286 4.65479 6.33317 4.65479C7.43774 4.65479 8.33317 5.55021 8.33317 6.65479C8.33317 7.75936 7.43774 8.65479 6.33317 8.65479ZM19.9998 20.6548C20.368 20.6548 20.6665 20.3563 20.6665 19.9881V13.8548C20.7098 11.7359 19.1433 9.92748 17.0398 9.66812C15.5692 9.53379 14.1442 10.2207 13.3332 11.4548V10.6548C13.3332 10.2867 13.0346 9.98812 12.6665 9.98812H10.6665C10.2984 9.98812 9.99984 10.2867 9.99984 10.6548V19.9881C9.99984 20.3563 10.2984 20.6548 10.6665 20.6548H12.6665C13.0346 20.6548 13.3332 20.3563 13.3332 19.9881V14.9881C13.3332 13.8836 14.2286 12.9881 15.3332 12.9881C16.4377 12.9881 17.3332 13.8836 17.3332 14.9881V19.9881C17.3332 20.3563 17.6317 20.6548 17.9998 20.6548H19.9998Z" fill="black"/>
</svg>
