<svg width="27" height="26" viewBox="0 0 27 26" fill="none" xmlns="http://www.w3.org/2000/svg">
<path d="M12.0945 0.952444C12.5528 -0.136168 14.1138 -0.136166 14.5722 0.952447L17.2772 7.37763C17.4705 7.83656 17.9074 8.15013 18.4089 8.18985L25.4302 8.74596C26.6199 8.84018 27.1022 10.3068 26.1959 11.0739L20.8464 15.6009C20.4643 15.9243 20.2973 16.4317 20.4141 16.9151L22.0484 23.684C22.3253 24.8308 21.0625 25.7373 20.044 25.1228L14.0327 21.4954C13.6033 21.2363 13.0633 21.2363 12.634 21.4954L6.62265 25.1228C5.60415 25.7373 4.34127 24.8308 4.61818 23.684L6.25256 16.9151C6.3693 16.4317 6.20243 15.9243 5.82034 15.6009L0.47075 11.0739C-0.435624 10.3068 0.0467571 8.84018 1.23639 8.74596L8.25781 8.18985C8.75933 8.15013 9.19621 7.83656 9.38942 7.37763L12.0945 0.952444Z" fill="#006B6A"/>
</svg>
