<svg width="33" height="33" viewBox="0 0 33 33" fill="none" xmlns="http://www.w3.org/2000/svg">
<path d="M27.2878 7.22477L26.8895 6.73958L26.5057 7.2363C26.2419 7.57766 24.0168 10.4557 19.0947 12.4585L18.5997 12.6599L18.8335 13.1404C19.143 13.7765 19.4513 14.4449 19.7247 15.094L19.7259 15.0969C19.7576 15.1708 19.7944 15.2626 19.8336 15.3602C19.8958 15.5155 19.964 15.6854 20.0265 15.8209L20.1799 16.1533L20.543 16.1075C24.883 15.5608 29.2062 16.4021 29.8509 16.5275C29.8688 16.531 29.8838 16.5339 29.896 16.5363L30.4969 16.6517L30.4903 16.0398C30.4543 12.7124 29.2669 9.63564 27.2878 7.22477ZM25.8012 6.24962L26.0571 5.88409L25.7229 5.5884C23.2232 3.37647 19.9309 2.02684 16.333 2.02684C15.186 2.02684 14.0711 2.15229 13.0072 2.40477L12.2735 2.57888L12.7194 3.18695L12.737 3.21093C13.1691 3.79991 15.5954 7.1068 17.7853 11.1303L17.9931 11.512L18.4001 11.3594C23.3752 9.49376 25.5151 6.65826 25.8012 6.24962ZM10.9196 3.51101L10.6748 3.18458L10.3059 3.35896C6.35006 5.22897 3.38186 8.87905 2.46397 13.2706L2.33809 13.8728H2.9534C2.96405 13.8728 2.9762 13.8729 2.98983 13.8729C3.76838 13.8735 9.37587 13.8783 15.7155 12.19L16.3399 12.0237L16.0222 11.461C13.7359 7.41193 11.2936 4.00974 10.9196 3.51101ZM2.67304 15.2679L2.15839 15.2528V15.7676V15.7685V15.7693V15.7701V15.7709V15.7717V15.7725V15.7733V15.7742V15.775V15.7758V15.7766V15.7774V15.7782V15.779V15.7798V15.7807V15.7815V15.7823V15.7831V15.7839V15.7847V15.7855V15.7864V15.7872V15.788V15.7888V15.7896V15.7904V15.7912V15.792V15.7929V15.7937V15.7945V15.7953V15.7961V15.7969V15.7977V15.7986V15.7994V15.8002V15.801V15.8018V15.8026V15.8034V15.8042V15.8051V15.8059V15.8067V15.8075V15.8083V15.8091V15.8099V15.8108V15.8116V15.8124V15.8132V15.814V15.8148V15.8156V15.8164V15.8173V15.8181V15.8189V15.8197V15.8205V15.8213V15.8221V15.823V15.8238V15.8246V15.8254V15.8262V15.827V15.8278V15.8286V15.8295V15.8303V15.8311V15.8319V15.8327V15.8335V15.8343V15.8352V15.836V15.8368V15.8376V15.8384V15.8392V15.84V15.8408V15.8417V15.8425V15.8433V15.8441V15.8449V15.8457V15.8465V15.8474V15.8482V15.849V15.8498V15.8506V15.8514V15.8522V15.853V15.8539V15.8547V15.8555V15.8563V15.8571V15.8579V15.8587V15.8595V15.8604V15.8612V15.862V15.8628V15.8636V15.8644V15.8652V15.8661V15.8669V15.8677V15.8685V15.8693V15.8701V15.8709V15.8717V15.8726V15.8734V15.8742V15.875V15.8758V15.8766V15.8774V15.8783V15.8791V15.8799V15.8807V15.8815V15.8823V15.8831V15.8839V15.8848V15.8856V15.8864V15.8872V15.888V15.8888V15.8896V15.8905V15.8913V15.8921V15.8929V15.8937V15.8945V15.8953V15.8961V15.897V15.8978V15.8986V15.8994V15.9002V15.901V15.9018V15.9027V15.9035V15.9043V15.9051V15.9059V15.9067V15.9075V15.9083V15.9092V15.91V15.9108V15.9116V15.9124V15.9132V15.914V15.9149V15.9157V15.9165V15.9173V15.9181V15.9189V15.9197V15.9206V15.9214V15.9222V15.923V15.9238V15.9246V15.9254V15.9262V15.9271V15.9279V15.9287V15.9295V15.9303V15.9311V15.9319V15.9328V15.9336V15.9344V15.9352V15.936V15.9368V15.9376V15.9384V15.9393V15.9401V15.9409V15.9417V15.9425V15.9433V15.9441V15.945V15.9458V15.9466V15.9474V15.9482V15.949V15.9498V15.9506V15.9515V15.9523V15.9531V15.9539V15.9547V15.9555V15.9563V15.9572V15.958V15.9588V15.9596V15.9604V15.9612V15.962V15.9628V15.9637V15.9645V15.9653V15.9661V15.9669V15.9677V15.9685V15.9694V15.9702V15.971V15.9718V15.9726V15.9734V15.9742V15.975V15.9759V15.9767V15.9775V15.9783V15.9791V15.9799V15.9807V15.9816V15.9824V15.9832V15.984V15.9848V15.9856V15.9864V15.9872V15.9881V15.9889V15.9897V15.9905V15.9913V15.9921V15.9929V15.9938V15.9946V15.9954V15.9962V15.997V15.9978V15.9986V15.9995V16.0003V16.0011V16.0019V16.0027V16.0035V16.0043V16.0051V16.006V16.0068V16.0076V16.0084V16.0092V16.01V16.0108V16.0117V16.0125V16.0133V16.0141V16.0149V16.0157V16.0165V16.0173V16.0182V16.019V16.0198V16.0206V16.0214V16.0222V16.023V16.0239V16.0247V16.0255V16.0263V16.0271V16.0279V16.0287V16.0295V16.0304V16.0312V16.032V16.0328V16.0336V16.0344V16.0352V16.0361V16.0369V16.0377V16.0385V16.0393V16.0401V16.0409V16.0418V16.0426V16.0434V16.0442V16.045V16.0458V16.0466V16.0474V16.0483V16.0491V16.0499V16.0507V16.0515V16.0523V16.0531V16.054V16.0548V16.0556V16.0564V16.0572V16.058V16.0588V16.0597V16.0605V16.0613V16.0621V16.0629V16.0637V16.0645V16.0653V16.0662V16.067V16.0678V16.0686V16.0694V16.0702V16.071V16.0719V16.0727V16.0735V16.0743V16.0751V16.0759V16.0767V16.0775V16.0784V16.0792V16.08V16.0808V16.0816V16.0824V16.0832V16.0841V16.0849V16.0857V16.0865V16.0873V16.0881V16.0889V16.0898V16.0906V16.0914V16.0922V16.093V16.0938V16.0946V16.0954V16.0963V16.0971V16.0979V16.0987V16.0995V16.1003V16.1011V16.102V16.1028V16.1036V16.1044V16.1052V16.106V16.1068V16.1077V16.1085V16.1093V16.1101V16.1109V16.1117V16.1125V16.1134V16.1142V16.115V16.1158V16.1166V16.1174V16.1182V16.119V16.1199V16.1207V16.1215V16.1223V16.1231V16.1239V16.1247V16.1256V16.1264V16.1272V16.128V16.1288V16.1296V16.1304V16.1313V16.1321V16.1329V16.1337V16.1345V16.1353V16.1361V16.1369V16.1378V16.1386V16.1394V16.1402V16.141V16.1418V16.1426V16.1435V16.1443V16.1451V16.1459V16.1467V16.1475V16.1483V16.1492V16.15V16.1508V16.1516V16.1524V16.1532V16.154V16.1549V16.1557V16.1565V16.1573V16.1581V16.1589V16.1597V16.1605V16.1614V16.1622V16.163V16.1638V16.1646V16.1654V16.1662V16.1671V16.1679V16.1687V16.1695V16.1703V16.1711V16.1719V16.1728V16.1736V16.1744V16.1752V16.176V16.1768V16.1776V16.1785V16.1793V16.1801V16.1809V16.1817V16.1825V16.1833V16.1841C2.15839 19.8185 3.54401 23.1466 5.79203 25.6464L6.24444 26.1495L6.59255 25.5693C6.8965 25.0627 10.5624 18.9976 17.4186 16.783C17.5003 16.7586 17.5865 16.7339 17.6765 16.7082C17.767 16.6824 17.8613 16.6554 17.9518 16.6282L18.4956 16.4651L18.265 15.9463C17.9156 15.1602 17.5464 14.3688 17.1405 13.5924L16.9492 13.2264L16.5536 13.3452C9.80848 15.3704 3.24114 15.2845 2.67304 15.2679ZM7.50096 26.7433L7.32571 27.1062L7.64323 27.3545C10.0364 29.2259 13.0594 30.3413 16.333 30.3413C18.2925 30.3413 20.1647 29.9457 21.876 29.2071L22.2381 29.0509L22.1705 28.6624C21.9595 27.4485 21.1716 23.2308 19.2288 18.2077L19.0308 17.6956L18.5537 17.9335C18.5456 17.9362 18.5331 17.9405 18.5193 17.9458C18.5093 17.9497 18.4989 17.954 18.4881 17.9587C10.6311 20.7102 7.77715 26.1712 7.50096 26.7433ZM23.458 27.5808L23.5857 28.3469L24.2302 27.9136C27.4129 25.7738 29.6813 22.3737 30.2935 18.4301L30.3583 18.0126L29.9575 17.879C29.453 17.7108 25.6169 16.5748 21.2181 17.2694L20.6187 17.364L20.8263 17.9342C22.5999 22.8077 23.3224 26.7671 23.458 27.5808ZM0.833008 16.1667C0.833008 7.60992 7.77618 0.666748 16.333 0.666748C24.8728 0.666748 31.833 7.61027 31.833 16.1667C31.833 24.7233 24.8728 31.6667 16.333 31.6667C7.77618 31.6667 0.833008 24.7236 0.833008 16.1667Z" fill="white" stroke="black"/>
</svg>
